# xmcd
#
# Track frame offsets:
#	150
#	15325
#	30422
#	45475
#	58590
#	73145
#	88627
#	101212
#	116555
#	130025
#	145062
#	158550
#	172605
#	184150
#
# Disc length: 2644 seconds
#
# Revision: 0
# Processed by: cddbd v1.5.1PL0 Copyright (c) Steve Scherf et al.
# Submitted via: EasyCDDAExtractor 7.7.1.2
#
DISCID=aa0a520e
DTITLE=Calango Aceso - Corno Modelo (Melô do Bingulim)
DYEAR=1900
DGENRE=Forró
TTITLE0=Corno Modelo (Melô do Bingulim)
TTITLE1=Mainha
TTITLE2=Namoro da Internet
TTITLE3=Nada do Fim
TTITLE4=Forrozão do Chico Velho
TTITLE5=Pra Sempre em Mim
TTITLE6=Cartão Vermelho
TTITLE7=Quem mente não vai pro céu
TTITLE8=Amor Infinito
TTITLE9=Moreno da Praia
TTITLE10=Oh! Mercadoria
TTITLE11=Declaração
TTITLE12=Casamento na Fazenda
TTITLE13=Belina Azul
EXTD=
EXTT0=
EXTT1=
EXTT2=
EXTT3=
EXTT4=
EXTT5=
EXTT6=
EXTT7=
EXTT8=
EXTT9=
EXTT10=
EXTT11=
EXTT12=
EXTT13=
PLAYORDER=
